<svg xmlns="http://www.w3.org/2000/svg" viewBox="0 0 343.5 310.95"><defs><style>.cls-1,.cls-12,.cls-17,.cls-4,.cls-7{fill:none;}.cls-1{stroke:#ff9d56;}.cls-1,.cls-12,.cls-17{stroke-miterlimit:10;}.cls-13,.cls-2,.cls-8{fill:#218aff;}.cls-3,.cls-5{fill:#fff;}.cls-3{opacity:0.85;}.cls-12,.cls-17,.cls-4,.cls-7{stroke:#fff;}.cls-4,.cls-7{stroke-linecap:round;stroke-linejoin:round;}.cls-6{fill:#ffd4c5;}.cls-7{stroke-dasharray:3.02 4.03;}.cls-8{opacity:0.5;}.cls-9{fill:#ff7125;}.cls-10{opacity:0.8;}.cls-11{fill:#ff9d56;}.cls-12{stroke-width:1.13px;}.cls-13{font-size:8.41px;font-family:Montserrat-Bold, Montserrat Bold;font-weight:700;}.cls-14{letter-spacing:-0.01em;}.cls-15{fill:#94d1ff;}.cls-16{fill:#fcfcfc;}.cls-18{fill:#f7a081;}.cls-19{fill:#000070;}.cls-20{fill:#02025e;}.cls-21{fill:#e5918f;}.cls-22{fill:#ffc6c5;}.cls-23{fill:#76beff;}.cls-24{fill:#d88484;}.cls-25{fill:#c67171;}</style></defs><g id="Layer_2" data-name="Layer 2"><g id="OBJECTS"><rect class="cls-1" x="17.66" y="13.58" width="248.75" height="172.28" rx="11.36"/><path class="cls-2" d="M309.12,42V206.19a9.91,9.91,0,0,1-9.91,9.91H48.39a9.91,9.91,0,0,1-9.91-9.91V42a9.91,9.91,0,0,1,9.91-9.91H299.21A9.91,9.91,0,0,1,309.12,42Z"/><path class="cls-3" d="M299.22,31.91V196.14a9.91,9.91,0,0,1-9.91,9.91H38.49a9.91,9.91,0,0,1-9.91-9.91V31.91A9.91,9.91,0,0,1,38.49,22H289.31A9.91,9.91,0,0,1,299.22,31.91Z"/><line class="cls-4" x1="73.68" y1="59.49" x2="73.68" y2="196.36"/><line class="cls-4" x1="118.79" y1="59.49" x2="118.79" y2="196.36"/><line class="cls-4" x1="163.9" y1="59.49" x2="163.9" y2="196.36"/><line class="cls-4" x1="209" y1="59.49" x2="209" y2="196.36"/><line class="cls-4" x1="254.11" y1="59.49" x2="254.11" y2="196.36"/><line class="cls-4" x1="290.88" y1="82.82" x2="35.63" y2="82.82"/><line class="cls-4" x1="290.88" y1="127.92" x2="35.63" y2="127.92"/><line class="cls-4" x1="290.88" y1="173.03" x2="35.63" y2="173.03"/><path class="cls-5" d="M299.22,31.91v16.5H28.58V31.91A9.91,9.91,0,0,1,38.49,22H289.31A9.91,9.91,0,0,1,299.22,31.91Z"/><rect class="cls-6" x="240.73" y="29.13" width="12.15" height="12.15" rx="1.39"/><rect class="cls-6" x="259.73" y="29.13" width="12.15" height="12.15" rx="1.39"/><rect class="cls-6" x="278.73" y="29.13" width="12.15" height="12.15" rx="1.39"/><path class="cls-5" d="M342.64,275.44h-9.51a.86.86,0,0,1-.86-.86h0a.87.87,0,0,1,.86-.86h9.51a.87.87,0,0,1,.86.86h0A.86.86,0,0,1,342.64,275.44Z"/><path class="cls-2" d="M89.43,18.63H79.92a.86.86,0,0,1-.86-.85h0a.86.86,0,0,1,.86-.86h9.51a.86.86,0,0,1,.86.86h0A.86.86,0,0,1,89.43,18.63Z"/><rect class="cls-5" x="13.76" y="240.57" width="11.23" height="1.72"/><path class="cls-5" d="M130.41,229.25H97.34a1.72,1.72,0,0,1-1.71-1.72h0a1.71,1.71,0,0,1,1.71-1.71h33.07a1.71,1.71,0,0,1,1.72,1.71h0A1.72,1.72,0,0,1,130.41,229.25Z"/><path class="cls-5" d="M323.5,122.89H305.34a1.72,1.72,0,0,1-1.71-1.72h0a1.72,1.72,0,0,1,1.71-1.72H323.5a1.72,1.72,0,0,1,1.72,1.72h0A1.72,1.72,0,0,1,323.5,122.89Z"/><path class="cls-2" d="M102.06,237H82.19a.86.86,0,0,1-.86-.86h0a.87.87,0,0,1,.86-.86h19.87a.86.86,0,0,1,.86.86h0A.85.85,0,0,1,102.06,237Z"/><path class="cls-2" d="M335.16,114.89H315.28a.87.87,0,0,1-.86-.86h0a.86.86,0,0,1,.86-.86h19.88a.86.86,0,0,1,.86.86h0A.87.87,0,0,1,335.16,114.89Z"/><path class="cls-5" d="M83.81,14.44H63.94a.86.86,0,0,1-.86-.86h0a.87.87,0,0,1,.86-.86H83.81a.86.86,0,0,1,.86.86h0A.85.85,0,0,1,83.81,14.44Z"/><line class="cls-4" x1="124.13" y1="201.69" x2="124.13" y2="203.19"/><path class="cls-7" d="M124.13,207.22v.36a2.75,2.75,0,0,0,2.75,2.75h49.71"/><line class="cls-4" x1="178.6" y1="210.33" x2="180.1" y2="210.33"/><rect class="cls-8" x="90.13" y="152.08" width="62.25" height="48.32" rx="2.75"/><rect class="cls-5" x="88.13" y="150.08" width="62.25" height="48.32" rx="2.75"/><path class="cls-9" d="M93.12,175.57h0c1.77,4.8,6.59,11.42,8.64,14.13a1.19,1.19,0,0,0,1.89,0c2-2.71,6.87-9.33,8.64-14.13h0a10.07,10.07,0,0,0,.62-3.52,10.21,10.21,0,1,0-20.42,0A10.07,10.07,0,0,0,93.12,175.57Zm15-3.52a5.47,5.47,0,1,1-5.47-5.47A5.46,5.46,0,0,1,108.17,172.05Z"/><g class="cls-10"><path class="cls-11" d="M143.42,163.92H117.17a1,1,0,0,1-1-1h0a1,1,0,0,1,1-1h26.25a1,1,0,0,1,1,1h0A1,1,0,0,1,143.42,163.92Z"/><path class="cls-11" d="M143.42,168.29H117.17a1,1,0,0,1-1-1h0a1,1,0,0,1,1-1h26.25a1,1,0,0,1,1,1h0A1,1,0,0,1,143.42,168.29Z"/><path class="cls-11" d="M143.42,172.67H117.17a1,1,0,0,1-1-1h0a1,1,0,0,1,1-1h26.25a1,1,0,0,1,1,1h0A1,1,0,0,1,143.42,172.67Z"/><rect class="cls-11" x="116.13" y="174.96" width="28.33" height="2.08" rx="1.04"/><path class="cls-11" d="M143.42,181.42H117.17a1,1,0,0,1-1-1h0a1,1,0,0,1,1-1h26.25a1,1,0,0,1,1,1h0A1,1,0,0,1,143.42,181.42Z"/><path class="cls-11" d="M143.42,185.79H117.17a1,1,0,0,1-1-1h0a1,1,0,0,1,1-1h26.25a1,1,0,0,1,1,1h0A1,1,0,0,1,143.42,185.79Z"/><path class="cls-11" d="M133.92,190.17H117.17a1,1,0,0,1-1-1h0a1,1,0,0,1,1-1h16.75a1,1,0,0,1,1,1h0A1,1,0,0,1,133.92,190.17Z"/></g><rect class="cls-5" x="168.13" y="87.03" width="36.72" height="36.72" rx="1.4"/><path class="cls-8" d="M199.22,93.88H183.67a.9.9,0,0,1-.9-.9h0a.9.9,0,0,1,.9-.9h15.55a.9.9,0,0,1,.91.9h0A.9.9,0,0,1,199.22,93.88Z"/><rect class="cls-8" x="182.77" y="95.22" width="17.36" height="1.81" rx="0.9"/><path class="cls-8" d="M199.22,100.17H183.67a.9.9,0,0,1-.9-.9h0a.91.91,0,0,1,.9-.91h15.55a.91.91,0,0,1,.91.91h0A.9.9,0,0,1,199.22,100.17Z"/><path class="cls-8" d="M199.22,103.31H174a.9.9,0,0,1-.9-.9h0a.9.9,0,0,1,.9-.9h25.19a.9.9,0,0,1,.91.9h0A.9.9,0,0,1,199.22,103.31Z"/><rect class="cls-8" x="173.13" y="104.65" width="27" height="1.81" rx="0.9"/><path class="cls-8" d="M199.22,109.6H174a.9.9,0,0,1-.9-.91h0a.9.9,0,0,1,.9-.9h25.19a.91.91,0,0,1,.91.9h0A.91.91,0,0,1,199.22,109.6Z"/><path class="cls-8" d="M199.22,112.74H174a.9.9,0,0,1-.9-.9h0a.9.9,0,0,1,.9-.91h25.19a.91.91,0,0,1,.91.91h0A.9.9,0,0,1,199.22,112.74Z"/><rect class="cls-8" x="173.13" y="114.08" width="27" height="1.81" rx="0.9"/><path class="cls-8" d="M185.72,119H174a.9.9,0,0,1-.9-.91h0a.9.9,0,0,1,.9-.9h11.69a.9.9,0,0,1,.91.9h0A.91.91,0,0,1,185.72,119Z"/><path class="cls-2" d="M179.52,98.44h-3.76l-.71,1.73h-1.92l3.6-8.09h1.85l3.62,8.09h-2ZM178.93,97l-1.28-3.09L176.36,97Z"/><path class="cls-5" d="M54.46,239.27c-11,0-19.83,1-19.83,2.16l6,62.36c0,.8,6.19,1.46,13.83,1.46s13.83-.66,13.83-1.46l6-62.36C74.29,240.24,65.41,239.27,54.46,239.27Z"/><path class="cls-5" d="M5.69,185.13s41.37,2.3,37.43,34.24C43.12,219.37,21,205.3,5.69,185.13Z"/><path class="cls-12" d="M41.13,216s7.32,8,9,32.78"/><path class="cls-12" d="M54.45,242.84a217,217,0,0,1,5.82-46.35"/><path class="cls-5" d="M55.6,224s-14.47-28,21.18-64.69C76.78,159.33,73.72,217.14,55.6,224Z"/><path class="cls-12" d="M60.27,242.84s.47-16.53,11-22"/><path class="cls-5" d="M67.12,223.58s7.78-10,20.62-3.16c14.64,7.82,7.15,32.27,7.15,32.27s-7.5-18.12-14.45-24.86A14.77,14.77,0,0,0,67.12,223.58Z"/><path class="cls-2" d="M77.13,97.06s11.5-.23,19.55,11.52c0,0,12.16-23.55,28.78-23.55,0,0-13.21,3.92-28.78,37.4C96.68,122.43,89.63,102.46,77.13,97.06Z"/><text class="cls-13" transform="translate(123.41 73.78)">4:00 <tspan class="cls-14" x="16.47" y="0">P</tspan><tspan x="20.84" y="0">M</tspan></text><rect class="cls-8" x="170.53" y="136" width="35.5" height="22.94" rx="1.33"/><rect class="cls-5" x="168.63" y="134.23" width="35.5" height="22.94" rx="1.31"/><circle class="cls-8" cx="175.94" cy="145.71" r="2.19"/><circle class="cls-8" cx="186.32" cy="145.71" r="2.19"/><circle class="cls-8" cx="196.69" cy="145.71" r="2.19"/><path class="cls-2" d="M30.37,111.7A28.88,28.88,0,1,1,59.25,82.82,28.88,28.88,0,0,1,30.37,111.7"/><path class="cls-15" d="M30.37,109.2A26.38,26.38,0,1,1,56.75,82.82,26.38,26.38,0,0,1,30.37,109.2"/><circle class="cls-16" cx="30.37" cy="82.82" r="24.09" transform="matrix(0.16, -0.99, 0.99, 0.16, -56.22, 99.64)"/><path class="cls-2" d="M30.37,61.87h0a.73.73,0,0,1-.73-.73V56.06a.73.73,0,0,1,.73-.73h0a.73.73,0,0,1,.73.73v5.08A.73.73,0,0,1,30.37,61.87Z"/><path class="cls-2" d="M51.32,82.82h0a.73.73,0,0,1,.73-.73h5.08a.73.73,0,0,1,.73.73h0a.73.73,0,0,1-.73.73H52.05A.73.73,0,0,1,51.32,82.82Z"/><path class="cls-2" d="M29.64,109.58V104.5a.73.73,0,0,1,.73-.73h0a.73.73,0,0,1,.73.73v5.08"/><path class="cls-2" d="M9.42,82.82h0a.73.73,0,0,1-.73.73H3.61a.73.73,0,0,1-.73-.73h0a.73.73,0,0,1,.73-.73H8.69A.72.72,0,0,1,9.42,82.82Z"/><path class="cls-15" d="M20,64.86h0a.48.48,0,0,1-.67-.18l-1.52-2.63a.49.49,0,0,1,.18-.68h0a.5.5,0,0,1,.68.18l1.52,2.63A.51.51,0,0,1,20,64.86Z"/><path class="cls-15" d="M48.27,72.51h0a.49.49,0,0,1,.18-.68l2.63-1.52a.51.51,0,0,1,.68.18h0a.5.5,0,0,1-.18.68L49,72.69A.49.49,0,0,1,48.27,72.51Z"/><path class="cls-15" d="M40.62,100.76h0a.51.51,0,0,1,.68.19l1.52,2.63a.5.5,0,0,1-.18.67h0a.49.49,0,0,1-.68-.18l-1.52-2.63A.49.49,0,0,1,40.62,100.76Z"/><path class="cls-15" d="M12.37,93.12h0a.5.5,0,0,1-.18.67L9.55,95.31a.48.48,0,0,1-.67-.18h0a.49.49,0,0,1,.18-.68l2.63-1.52A.51.51,0,0,1,12.37,93.12Z"/><path class="cls-15" d="M12.42,72.42h0a.5.5,0,0,1-.68.18L9.11,71.08a.49.49,0,0,1-.18-.68h0a.5.5,0,0,1,.68-.18l2.63,1.52A.5.5,0,0,1,12.42,72.42Z"/><path class="cls-15" d="M40.71,64.91h0a.5.5,0,0,1-.18-.67l1.52-2.63a.51.51,0,0,1,.68-.19h0a.5.5,0,0,1,.18.68l-1.52,2.63A.49.49,0,0,1,40.71,64.91Z"/><path class="cls-15" d="M48.22,93.21h0a.48.48,0,0,1,.67-.18l2.64,1.51a.51.51,0,0,1,.18.68h0a.49.49,0,0,1-.68.18L48.4,93.88A.48.48,0,0,1,48.22,93.21Z"/><path class="cls-15" d="M19.92,100.71h0a.49.49,0,0,1,.18.68L18.59,104a.49.49,0,0,1-.68.18h0a.49.49,0,0,1-.18-.68l1.52-2.63A.49.49,0,0,1,19.92,100.71Z"/><path class="cls-9" d="M31.06,82H29.68V64.05a.69.69,0,0,1,.69-.7h0a.69.69,0,0,1,.69.7Z"/><path class="cls-9" d="M29.89,82.56l.91.55a.16.16,0,0,1,.06.22l-5.3,8.75a.7.7,0,0,1-1,.24h0a.7.7,0,0,1-.23-.95l5.3-8.76A.16.16,0,0,1,29.89,82.56Z"/><path class="cls-15" d="M30.23,82.93a.28.28,0,0,0,.12.2L44.13,93.47a.33.33,0,0,0,.45-.07.32.32,0,0,0-.07-.44L30.73,82.62a.33.33,0,0,0-.45.07A.3.3,0,0,0,30.23,82.93Z"/><path class="cls-15" d="M32.43,82.82a2.06,2.06,0,1,1-2.06-2.06A2.06,2.06,0,0,1,32.43,82.82Z"/><path class="cls-16" d="M31.32,82.82a.95.95,0,1,1-.95-.95A.95.95,0,0,1,31.32,82.82Z"/><rect class="cls-16" x="258.63" y="87.27" width="16.04" height="16.04" rx="0.99"/><rect class="cls-2" x="274.67" y="106.87" width="16.04" height="16.04" rx="0.99"/><rect class="cls-5" x="36.88" y="135.64" width="28.88" height="28.88" rx="3.07"/><path class="cls-9" d="M40.38,146.84a11.73,11.73,0,0,1,9.22,5.43s5.73-11.1,13.56-11.1c0,0-6.22,1.85-13.56,17.63C49.6,158.8,46.27,149.38,40.38,146.84Z"/><path class="cls-17" d="M334.63,58.65a4.71,4.71,0,1,1-4.7-4.71A4.69,4.69,0,0,1,334.63,58.65Z"/><path class="cls-17" d="M323,157.17a4.71,4.71,0,1,1-4.7-4.7A4.7,4.7,0,0,1,323,157.17Z"/><circle class="cls-17" cx="108.17" cy="272.26" r="4.71"/><path class="cls-17" d="M5.21,134.23a2.36,2.36,0,1,1-2.36-2.36A2.36,2.36,0,0,1,5.21,134.23Z"/><path class="cls-17" d="M281.08,17.78a2.36,2.36,0,1,1-2.35-2.36A2.35,2.35,0,0,1,281.08,17.78Z"/><circle class="cls-17" cx="168.13" cy="4.08" r="3.58"/><path class="cls-6" d="M298.57,169.25c18.45,5.29,38.63,19.52,34.67,78.09-1.61,23.81-17.67,63.08-71.67,63.08-56.9,0-90.49,6.19-112.89-23.58s-2.44-57.26,24.17-64.26c19.7-5.18,37.73-10.31,49.52-19.16S257.91,157.58,298.57,169.25Z"/><path class="cls-18" d="M302.85,183.25a31.66,31.66,0,0,1,5.35,5.62,48.23,48.23,0,0,1,4.21,6.54A62,62,0,0,1,317.89,210c2.48,10.14,2.52,20.69,1.64,31s-2.78,20.77-7.51,30.15a44.78,44.78,0,0,1-9.34,12.53,50.27,50.27,0,0,1-13,8.67,69.5,69.5,0,0,1-14.83,4.89c-5.08,1.15-10.21,2-15.37,2.64a225.94,225.94,0,0,1-31.09,1.64,211.69,211.69,0,0,1-31-2.66,118.18,118.18,0,0,1-29.78-8.76,117.64,117.64,0,0,0,29.86,8.27,212.05,212.05,0,0,0,30.93,2.38,237.34,237.34,0,0,0,31-1.78,154,154,0,0,0,15.26-2.66,69.23,69.23,0,0,0,14.63-4.86A49.54,49.54,0,0,0,302,283a44.21,44.21,0,0,0,9.18-12.26,64,64,0,0,0,5.17-14.51,112.33,112.33,0,0,0,2.4-15.29c1-10.28,1-20.74-1.35-30.84a61.27,61.27,0,0,0-5.24-14.55,47.5,47.5,0,0,0-4.09-6.58A31.54,31.54,0,0,0,302.85,183.25Z"/><path class="cls-5" d="M206.68,311H231s1.36-4.33-1.58-9.69c0,0-2,1.57-7.81.51a26,26,0,0,1-4.14,2.89C215.75,305.48,206,307.39,206.68,311Z"/><path class="cls-19" d="M208.37,242.44c1.57,9.36,8.81,41,11.92,59.76a36.77,36.77,0,0,0,11-.51c-.29-6.52,4.41-56.9-.68-65.27l-22.79,2.44c.1.91.2,1.64.28,2.17S208.28,242,208.37,242.44Z"/><path class="cls-5" d="M162.73,311H187s1.35-4.33-1.59-9.69c0,0-1.95,1.57-7.81.51a26,26,0,0,1-4.14,2.89C171.8,305.48,162.07,307.39,162.73,311Z"/><path class="cls-20" d="M176.92,301.65a34.7,34.7,0,0,0,11,.72c1.29-7.52,5.33-23.36,7.16-31.12,2.85-12.06,7.45-29.71,5.51-35.63l-22.07-3.74C178.49,232.42,177.12,283.18,176.92,301.65Z"/><path class="cls-20" d="M244,214.62h0c-.34-3.33-.73-5.77-.73-5.77l-18.82,4.61-16,3.64c-5.92,1.32-13.08,2.91-19.4,4.34-7.08,1.61-11.78,7-10.23,14.08l1.77,8.61c9.91-.14,56.49-4.6,60.47-6.62C245.55,235.24,246.9,227.2,244,214.62Z"/><path class="cls-19" d="M272.07,214.62h0a26,26,0,0,0-2-6.91l-17.58,5.75-16,3.64c-5.93,1.32-13.09,2.91-19.4,4.34-7.08,1.61-11.79,7-10.24,14.08l1.78,8.61c4.35-.06,12.77,1.36,23.87.88,20.49-.88,31.46-4.67,36.6-7.5C273.56,235.08,275,227.2,272.07,214.62Z"/><path class="cls-21" d="M219.39,187.64s8.36-3.77,10.66,0c1.26,2.08.38,5.93-2.47,7.54s-19,8.43-34.17,12.23a37.65,37.65,0,0,0-1.69-4.33,79.8,79.8,0,0,0,13.6-7.6,86.69,86.69,0,0,1,14.07-7.85Z"/><path class="cls-22" d="M221.48,161.54l-7.17,28.61s.74,7.24,8.05,3.69,12.15-26.35,12.15-26.35Z"/><path class="cls-5" d="M233.67,154.91l-1.87,1.94L232,160l1.62,17.53c-.89-.21-1.74-.45-2.55-.69a42.79,42.79,0,0,1-12.87-5.9s4-15.76,8.66-21.85a13,13,0,0,1,3.63-3.15,8.44,8.44,0,0,1,4-1.28c1.56-.06,3.83-.14,6.49-.21Z"/><path class="cls-5" d="M275.9,151.71c-.23,5.25-1.27,14.28-2,22.64-.08.92-.16,1.84-.23,2.74-.12,1.37-2.18,8.66-2.26,10-.37,6.23-3.43,10.91-.53,20.4a15.05,15.05,0,0,1,.86,4.39c0,.65-.84,1.34-1.17,1.52-3.59,2.07-17.52,2.37-24.53,2.37-6.23,0-15.57-1-16.75-2.55s-.09-3.53.42-6.42c2.3-13,1.49-19.8,1.34-29.19,0-.24,0-.48,0-.72-.23-14-1.13-26.07-.58-30.9a8.44,8.44,0,0,1,4-1.28c1.56-.06,3.83-.14,6.49-.21,5.25-.13,12.06-.21,18.11,0a72.64,72.64,0,0,1,11.67,1,22.44,22.44,0,0,1,1.66,1.61A24.88,24.88,0,0,1,275.9,151.71Z"/><path class="cls-22" d="M286.27,184.54l0-.16c-.48-3.2-1.16-6.2-1.36-7,0-.13,0-.21,0-.21-1.57-7.75-3.38-15.89-3.38-15.89l-14.13,7.21a182.53,182.53,0,0,0,5.24,17.75s-9.47,6.11-16.06,11.14a79.59,79.59,0,0,1-13.28,8.14,36.07,36.07,0,0,1,1.87,4.27,317.58,317.58,0,0,0,30.58-11,72.14,72.14,0,0,0,8.76-4.53c.08,0,1.24-.74,1.32-.8.51-.26.79-1,.92-2h0A30,30,0,0,0,286.27,184.54Z"/><path class="cls-22" d="M244.21,205a5.25,5.25,0,0,1-3.36.64c-.93-.2-1.31-.58-2-.7a15.38,15.38,0,0,1-3.45-.8c-.91-.45-1.27-.5-1.24.42s1.84,1.71,2.33,2a4.27,4.27,0,0,1,1.16,1.17c.07.1-3,1.71-3.83,1.38a2.41,2.41,0,0,0-.1,1.15c.14.42.77.56.82.77s-.15.63,0,1,.7.33.93.87,0,.54.14,1.1.88.66,1,.94.06.63.36.83S240,215,241,214.61s3.7-4.32,6.69-5.64Z"/><path class="cls-5" d="M284.09,169.73a49,49,0,0,1-6.36,3.24,34.65,34.65,0,0,1-3.82,1.38,14.74,14.74,0,0,1-6.26.65s-4.29-10.75-5.65-16.42l2.36-5.13-5.25-9a72.64,72.64,0,0,1,11.67,1,7.75,7.75,0,0,1,2.26.76c4,2.36,7.47,10.65,9,15.5.11.36.21.7.29,1,0,.13.08.26.11.39s0,.18.07.25C283.48,167.05,284.09,169.73,284.09,169.73Z"/><path class="cls-23" d="M258.33,222.35H236.84v-2.11h21.49a1,1,0,0,1,1.05,1h0A1.06,1.06,0,0,1,258.33,222.35Z"/><path class="cls-23" d="M246.7,222.35H192.9a1.43,1.43,0,0,1-1.38-1l-11-39.65a1.37,1.37,0,0,1,1.32-1.74h52a2.7,2.7,0,0,1,2.6,2l11,39.5A.77.77,0,0,1,246.7,222.35Z"/><path class="cls-2" d="M244.76,222.35H191a1.43,1.43,0,0,1-1.38-1l-11-39.65a1.37,1.37,0,0,1,1.33-1.74h52a2.71,2.71,0,0,1,2.6,2l11,39.5A.77.77,0,0,1,244.76,222.35Z"/><path class="cls-6" d="M232.54,245s.7-8.81,14.32-12c10.94-2.59,24.67-.61,28.42-12V245Z"/><path class="cls-22" d="M259.11,144.43s-2.6,11.32-11,11.32c-6.47,0-5.47-11.32-5.47-11.32l1.43-.35a1.43,1.43,0,0,0,1.09-1.28l0-.37.31-3.85.06-.75,9.91-4.91.87,8.59a3.33,3.33,0,0,0,1.92,2.51Z"/><path class="cls-21" d="M252.36,135.5s-1.58,6-7.21,6.93l.31-3.85Z"/><path class="cls-19" d="M235.34,119.08s-.14,4.71,1.7,6.64a6.16,6.16,0,0,0,2,1.31l-.55-6.66"/><path class="cls-22" d="M236.52,118.52s-.35,16.93,4.67,20.28,11.56-1.73,13.62-4.89c3.89-6,4.64-12.23,3.63-16C256.09,109,237.15,107.92,236.52,118.52Z"/><path class="cls-19" d="M232.36,110.32s-1.34,9.94,4.18,10.94,16.6,0,16.6,0l.53,3.79a1,1,0,0,0,.36.52,13,13,0,0,1,1.6,1.44c.77.86-.2,5.89-.2,5.89a35.69,35.69,0,0,0,4.86-8.62c1.95-5.29.75-11-3.42-10.85,0,0-.2-3.26-4.41-3.88C247.18,108.81,239.71,112.56,232.36,110.32Z"/><path class="cls-22" d="M253.84,125.4s1.21-2.78,2.69-2c1.86,1,.5,4.57-.67,6.43C255,131.28,253.53,130.37,253.84,125.4Z"/><path class="cls-19" d="M237.62,126.43a1.84,1.84,0,0,1,2.92-.28.8.8,0,0,1,.29.43c0,.17-.22.24-.5.08A2.42,2.42,0,0,0,237.62,126.43Z"/><path class="cls-19" d="M248.88,126.43c.13-.17-1.94-1.75-4-.4,0,0-.31.21-.33.43s.14.26.51.1A5.55,5.55,0,0,1,248.88,126.43Z"/><path class="cls-19" d="M239.78,128.33c0,.39-.17.71-.38.71s-.38-.32-.38-.71.17-.7.38-.7S239.78,127.94,239.78,128.33Z"/><path class="cls-19" d="M246.78,128.33c0,.39-.2.71-.44.71s-.43-.32-.43-.71.19-.7.43-.7S246.78,127.94,246.78,128.33Z"/><path class="cls-24" d="M242,128.66s-.8,2.72-.59,3.19c.12.28,1.86.59,1.95.52s-1.32-.68-1.39-.91.41-3.53.42-3.67C242.46,127.49,242.34,127.4,242,128.66Z"/><path class="cls-25" d="M240.59,134.63a7.33,7.33,0,0,0,2.23.24,9.33,9.33,0,0,0,2-.24,4,4,0,0,1-2,.9A2.38,2.38,0,0,1,240.59,134.63Z"/></g></g></svg>