<?xml version="1.0" standalone="no"?>
<!DOCTYPE svg PUBLIC "-//W3C//DTD SVG 20010904//EN"
 "http://www.w3.org/TR/2001/REC-SVG-20010904/DTD/svg10.dtd">
<svg version="1.0" xmlns="http://www.w3.org/2000/svg"
 width="512.000000pt" height="512.000000pt" viewBox="0 0 512.000000 512.000000"
 preserveAspectRatio="xMidYMid meet">
<metadata>
Created by potrace 1.16, written by Peter Selinger 2001-2019
</metadata>
<g transform="translate(0.000000,512.000000) scale(0.100000,-0.100000)"
fill="#000000" stroke="none">
<path d="M2415 3845 c-97 -18 -187 -49 -275 -97 -41 -22 -116 -62 -167 -88
-119 -62 -177 -105 -258 -192 -128 -139 -192 -315 -182 -502 3 -55 8 -175 10
-266 5 -208 32 -323 112 -485 52 -107 154 -239 171 -222 4 3 -16 32 -45 62
-126 139 -208 363 -219 598 -11 253 43 514 140 672 78 128 203 248 318 305 25
13 59 33 76 46 46 36 190 100 279 126 64 18 104 22 205 22 151 0 249 -23 387
-89 282 -134 474 -352 560 -632 24 -80 27 -104 27 -253 1 -175 -5 -216 -55
-379 -31 -100 -52 -208 -38 -194 18 18 91 213 114 303 83 328 39 600 -130 820
-55 71 -174 188 -250 245 -224 169 -528 247 -780 200z"/>
<path d="M2475 3744 c-113 -18 -226 -70 -300 -139 -44 -41 -45 -43 -9 -17 55
42 167 97 239 118 79 23 235 23 330 -1 88 -22 192 -69 287 -130 87 -56 240
-209 286 -287 124 -209 132 -534 18 -773 -61 -130 -208 -300 -331 -385 -211
-145 -515 -172 -775 -69 -164 66 -322 202 -394 339 -64 121 -88 224 -93 405
-4 123 -2 178 10 237 33 160 108 289 241 420 44 43 74 78 67 78 -22 0 -194
-182 -230 -242 -90 -154 -116 -272 -108 -493 7 -190 27 -280 89 -405 84 -167
281 -328 484 -395 49 -17 95 -35 101 -42 19 -18 113 -26 226 -21 104 6 172 22
149 37 -8 5 3 12 30 20 111 33 234 115 348 230 204 206 285 400 284 681 -1
182 -47 324 -147 456 -123 162 -337 309 -522 358 -61 17 -226 28 -280 20z"/>
<path d="M2431 3630 c-219 -46 -447 -199 -539 -363 -124 -218 -90 -490 96
-752 168 -239 351 -355 559 -355 102 0 165 15 268 65 293 141 477 460 425 734
-46 242 -244 455 -481 518 -75 19 -240 22 -314 4 -88 -21 -186 -75 -248 -137
-70 -69 -101 -120 -133 -216 -29 -84 -39 -98 -70 -98 -30 0 -51 32 -60 95 -5
39 -9 45 -15 30 -26 -66 -1 -186 63 -305 145 -272 351 -422 578 -422 149 0
254 47 367 165 91 94 140 202 152 331 5 64 8 71 26 68 53 -8 114 -135 100
-210 -33 -188 -194 -380 -397 -471 -267 -121 -573 -28 -769 232 -114 151 -161
276 -161 427 0 194 83 355 256 494 96 77 221 128 360 146 293 39 608 -137 755
-423 57 -109 75 -202 68 -351 -4 -66 -9 -134 -12 -151 -4 -24 -2 -22 11 10 20
51 30 241 15 317 -49 262 -270 506 -541 598 -74 25 -280 36 -359 20z m23 -279
c3 -5 -16 -17 -42 -26 -30 -12 -68 -40 -104 -77 -32 -32 -58 -54 -58 -48 0 20
85 102 135 131 54 31 61 33 69 20z m291 -26 c82 -48 155 -146 155 -209 0 -16
-62 -65 -96 -76 -31 -10 -32 -13 -23 -43 33 -114 -12 -222 -119 -284 -35 -21
-58 -27 -106 -27 -34 0 -69 5 -79 10 -16 9 -15 12 8 34 20 19 38 25 73 26 96
2 163 66 170 162 3 50 0 63 -26 103 -35 54 -81 79 -150 79 -121 0 -197 -127
-147 -246 14 -33 13 -38 -10 -84 -14 -27 -29 -51 -35 -55 -14 -9 -12 7 5 29
12 16 11 24 -10 65 -32 64 -39 125 -22 184 l15 47 -24 0 c-58 0 -87 84 -40
115 28 19 66 8 89 -25 l15 -22 70 34 69 33 -20 28 c-26 34 -15 74 26 97 39 22
81 -2 85 -49 2 -18 -1 -38 -7 -44 -19 -19 -12 -45 13 -51 13 -3 47 -21 75 -40
54 -36 55 -36 65 6 8 33 53 60 86 51 l23 -6 -19 32 c-25 44 -74 85 -134 116
-28 14 -50 28 -50 30 0 12 35 3 75 -20z m-531 -288 c-38 -144 11 -314 116
-397 109 -87 250 -109 363 -57 70 32 152 107 183 168 42 84 49 201 19 312 -6
21 -5 21 9 3 35 -44 34 -227 -2 -308 -38 -86 -123 -163 -222 -202 -64 -25
-180 -23 -254 4 -112 42 -209 161 -237 291 -13 58 -7 165 11 216 19 52 30 28
14 -30z m421 13 c44 -27 69 -81 62 -136 -6 -57 -38 -99 -92 -120 -43 -16 -47
-16 -90 1 -111 42 -130 195 -32 255 42 26 110 26 152 0z"/>
<path d="M3427 2534 c-9 -92 -42 -208 -77 -269 -68 -118 -213 -255 -344 -325
-70 -37 -90 -60 -30 -35 167 70 393 296 457 459 23 57 29 188 11 220 -9 14
-12 5 -17 -50z"/>
<path d="M1470 2496 c0 -2 9 -46 19 -97 32 -151 79 -273 150 -386 48 -78 40
-45 -14 60 -56 108 -106 250 -126 360 -7 37 -16 67 -21 67 -4 0 -8 -2 -8 -4z"/>
<path d="M3577 2436 c-27 -106 -72 -214 -123 -296 -27 -45 -37 -67 -24 -55 64
58 181 339 168 403 -2 9 -12 -14 -21 -52z"/>
<path d="M1550 1660 l0 -120 25 0 c23 0 25 4 25 40 0 35 3 40 24 40 16 0 31
-12 50 -40 16 -24 34 -40 46 -40 25 0 25 6 0 53 l-20 38 20 21 c29 32 26 82
-6 107 -21 17 -41 21 -95 21 l-69 0 0 -120z m130 55 c19 -22 -5 -45 -46 -45
-31 0 -34 3 -34 30 0 27 3 30 34 30 18 0 39 -7 46 -15z"/>
<path d="M1807 1773 c-4 -3 -7 -57 -7 -120 l0 -113 100 0 c93 0 100 1 100 20
0 18 -7 20 -59 20 -72 0 -91 6 -91 31 0 17 8 19 65 19 49 0 65 3 65 14 0 25
-28 38 -77 34 -46 -3 -48 -2 -51 25 l-3 27 75 0 c74 0 76 1 76 25 0 25 0 25
-93 25 -52 0 -97 -3 -100 -7z"/>
<path d="M2085 1755 c-46 -45 -24 -94 55 -120 57 -19 66 -28 45 -45 -14 -12
-34 -11 -99 6 -21 5 -26 3 -26 -14 0 -31 26 -45 89 -46 68 -1 101 20 101 64 0
33 -20 52 -83 79 -64 28 -57 46 16 46 45 0 57 3 61 17 6 25 -23 38 -84 38 -41
0 -56 -5 -75 -25z"/>
<path d="M2325 1755 c-47 -46 -22 -99 57 -124 43 -14 56 -29 37 -42 -14 -9
-71 -5 -103 7 -12 5 -16 0 -16 -20 0 -30 27 -41 102 -40 56 1 88 24 88 64 0
34 -24 56 -84 76 -34 12 -46 21 -44 33 3 12 15 16 55 15 39 -1 53 2 58 14 9
25 -23 42 -77 42 -39 0 -54 -5 -73 -25z"/>
<path d="M2567 1773 c-4 -3 -7 -57 -7 -120 l0 -113 25 0 c23 0 25 4 25 40 0
36 3 40 25 40 18 0 32 -11 50 -40 18 -29 32 -40 50 -40 32 0 31 13 -1 56 -15
19 -21 34 -15 34 20 0 51 40 51 66 0 15 -12 38 -29 55 -27 26 -36 29 -99 29
-38 0 -72 -3 -75 -7z m138 -57 c30 -22 3 -46 -51 -46 -42 0 -44 1 -44 30 0 28
2 30 38 30 21 0 47 -6 57 -14z"/>
<path d="M2827 1773 c-3 -5 15 -58 40 -120 34 -84 51 -113 67 -117 11 -3 27 0
34 7 21 22 102 221 93 230 -22 22 -44 -2 -79 -87 -20 -48 -38 -84 -39 -80 -41
113 -70 169 -90 172 -11 2 -23 -1 -26 -5z"/>
<path d="M3120 1661 l0 -121 25 0 26 0 -3 118 c-3 113 -4 117 -25 120 -23 3
-23 2 -23 -117z"/>
<path d="M3293 1765 c-40 -17 -63 -61 -63 -120 0 -144 218 -151 237 -8 7 50
-16 97 -60 123 -37 23 -70 25 -114 5z m80 -46 c56 -25 53 -106 -4 -130 -26
-10 -34 -9 -57 8 -39 29 -42 83 -6 112 31 24 35 25 67 10z"/>
<path d="M2800 1356 c0 -9 5 -16 10 -16 6 0 10 4 10 9 0 6 -4 13 -10 16 -5 3
-10 -1 -10 -9z"/>
<path d="M2051 1321 c-8 -5 -20 -7 -28 -4 -10 4 -13 -7 -13 -46 0 -55 16 -69
26 -23 10 48 13 52 36 51 l23 0 -22 -9 c-13 -5 -23 -14 -23 -19 0 -26 14 -41
39 -41 22 1 24 2 9 11 -22 12 -23 29 -3 29 18 0 20 31 3 48 -14 14 -28 15 -47
3z"/>
<path d="M2178 1319 c-10 -5 -18 -21 -18 -34 0 -21 5 -25 33 -26 l32 -2 -35
-7 c-35 -7 -35 -7 -10 -17 30 -13 60 0 60 26 0 11 -12 22 -32 29 l-33 12 33
-5 c34 -5 40 3 20 23 -14 14 -27 15 -50 1z"/>
<path d="M2306 1317 c-22 -16 -12 -43 22 -56 l27 -11 -28 4 c-34 4 -44 -9 -17
-24 14 -8 26 -8 40 0 29 16 25 46 -7 58 l-28 10 28 1 c30 1 36 15 11 25 -22 8
-28 8 -48 -7z"/>
<path d="M2442 1314 c-26 -18 -29 -56 -6 -78 19 -20 35 -20 60 -1 18 14 17 14
-13 15 -18 0 -33 5 -33 11 0 8 12 10 35 6 30 -5 35 -3 35 13 0 16 -34 50 -50
50 -3 0 -16 -7 -28 -16z m41 -21 c-7 -2 -19 -2 -25 0 -7 3 -2 5 12 5 14 0 19
-2 13 -5z"/>
<path d="M2752 1309 c-5 -13 -11 -30 -14 -38 -2 -9 -9 -2 -17 17 -17 40 -36
43 -26 5 8 -36 34 -75 44 -69 11 7 35 95 28 103 -4 3 -10 -5 -15 -18z"/>
<path d="M2807 1323 c-11 -10 -8 -93 3 -93 6 0 10 23 10 50 0 51 -1 55 -13 43z"/>
<path d="M2888 1316 c-11 -8 -18 -26 -18 -45 0 -65 100 -65 108 1 5 45 -53 73
-90 44z m57 -41 c0 -25 -40 -33 -49 -10 -9 24 2 37 27 33 14 -2 22 -10 22 -23z"/>
<path d="M2577 1275 c22 -67 41 -60 67 23 10 32 -10 28 -28 -5 l-14 -28 -7 28
c-4 15 -13 27 -20 27 -11 0 -11 -9 2 -45z"/>
</g>
</svg>